. 
 
http://www.torrenting.com          :     Once & For all ;)


               www . Torrenting . Com 

(((((((((((((= Enjoy No RAR releases =))))))))))))))))))))


...................................NFO:....................................

.[IMG]http://img442.imageshack.us/img442/9687/rampart2011dvd.jpg[/IMG]


[color=blue][size=5][b]Rampart.2011.DVDScr.XVID.AC3.Hive-CM8[/b][/size][/color]


[b]Thx Hive

CM8 Doing It Right The First Time :D


Source: Screener DVD-R

Encode:
well what a messy dvd, 2 different interlaced methods at the same time, if you remove only one
you have the stripes if you remove both its unsharp a lot, if you remove one and denoise the
rest its better. tried around 20 different versions wasnt happy with either of them.
Then i found a good solution, thats still sharp and not with visible stripes.
removed that "for your consideration" logo that pops up for 4 secs here and there too.
looks good in the end, considering the bad source dvd
There are some good versions around now too, and i am the last out as it seems, if its worth a redl,
well thats up to you.if you have already a stripefree version and you have montly dl-limits there is
no big reason to get this version too unless you want to. :P
enjoy

Video: 720x304 @bitrate 1800 2pass
Audio: English AC3 2.0 Stereo
Sample: Yes, included[/b]
 
http://www.imdb.com/title/tt1640548/


General
Complete name                  : Rampart.2011.DVDScr.XVID.AC3.Hive-CM8.avi
Format                         : AVI
Format/Info                    : Audio Video Interleave
File size                      : 1.54 GiB
Duration                       : 1h 48mn
Overall bit rate               : 2 044 Kbps
Writing application            : Nandub v1.0rc2
Writing library                : Nandub build 1853/release

Video
ID                             : 0
Format                         : MPEG-4 Visual
Format profile                 : Advanced Simple@L5
Format settings, BVOP          : 2
Format settings, QPel          : Yes
Format settings, GMC           : No warppoints
Format settings, Matrix        : Default (H.263)
Muxing mode                    : Packed bitstream
Codec ID                       : XVID
Codec ID/Hint                  : XviD
Duration                       : 1h 48mn
Bit rate                       : 1 842 Kbps
Width                          : 720 pixels
Height                         : 304 pixels
Display aspect ratio           : 2.35:1
Frame rate                     : 23.976 fps
Color space                    : YUV
Chroma subsampling             : 4:2:0
Bit depth                      : 8 bits
Scan type                      : Progressive
Compression mode               : Lossy
Bits/(Pixel*Frame)             : 0.351
Stream size                    : 1.39 GiB (90%)
Writing library                : XviD 1.2.1 (UTC 2008-12-04)

Audio
ID                             : 1
Format                         : AC-3
Format/Info                    : Audio Coding 3
Format profile                 : Dolby Digital
Mode extension                 : CM (complete main)
Codec ID                       : 2000
Duration                       : 1h 48mn
Bit rate mode                  : Constant
Bit rate                       : 192 Kbps
Channel(s)                     : 2 channels
Channel positions              : Front: L R
Sampling rate                  : 48.0 KHz
Bit depth                      : 16 bits
Compression mode               : Lossy
Stream size                    : 148 MiB (9%)
Alignment                      : Split accross interleaves
Interleave, duration           : 42 ms (1.00 video frame)
Interleave, preload duration   : 500 ms


Plot:
Set in 1999 Los Angeles, veteran police officer Dave Brown, the last of the renegade cops,
works to take care of his family, and struggles for his own survival.


Cast:
Woody Harrelson    ...    Dave Brown
Ben Foster         ...    General Terry
Sigourney Weaver   ...    Joan Confrey
Robin Wright       ...    Linda Fentress
Ice Cube           ...    Kyle Timkins


[img]http://img705.imageshack.us/img705/6699/94017198.png[/img]
[img]http://img36.imageshack.us/img36/6819/rarad.png[/img]
[img]http://img15.imageshack.us/img15/3706/rararaw.png[/img]
[img]http://img694.imageshack.us/img694/4816/rararara.png[/img]
[img]http://img805.imageshack.us/img805/848/rarararara.png[/img]
[img]http://img3.imageshack.us/img3/9251/rarararararaf.png[/img]
[img]http://img202.imageshack.us/img202/2852/rarararararara.png[/img]



Greetz

ViSiON,SPK,SANTi,3LT0N,FUSiON,YanKeeS,MAGNET,THC,LKRG,Feel-Free,FANTASIA-PLAY,FANTASIA-M,FLAWL3SS,
WBZ,ZMG,BHRG,NOVA,D2U,Vik,Rapeseed,T0XiC,SAFC,goldadvance,MEMORY100,KaN1vE,Unevano,Pinnz,Wayne
Mr Hive,and most P2P groups
Great Work Guys :D

LOOKING FOR ANYTHING YOU WANT TO LOOK AND SOUND BETTER

CM8@hushmail.com